<svg xmlns="http://www.w3.org/2000/svg" viewBox="0 0 40 40" width="40" height="40">
    <linearGradient id="a" gradientUnits="userSpaceOnUse" x1="5.858" y1="36.142" x2="34.213" y2="7.787" gradientTransform="matrix(1 0 0 -1 0 42)">
        <stop offset="0" stop-color="#b155ba" />
        <stop offset="1" stop-color="#69299a" />
    </linearGradient>
    <path d="M34.1 5.9C26.3-2 13.7-2 5.9 5.9-2 13.7-2 26.3 5.9 34.1c7.8 7.8 20.5 7.8 28.3 0s7.8-20.4-.1-28.2z" fill="url(#a)"
    />
    <path d="M24.8 22.1C26.2 20.8 27 19 27 17c0-3.9-3.1-7-7-7s-7 3.1-7 7c0 2 .8 3.8 2.2 5.1-2.4.4-4.2 2.4-4.2 4.9v2c0 .6.4 1 1 1h16c.6 0 1-.4 1-1v-2c0-2.5-1.8-4.5-4.2-4.9zM15 17c0-2.8 2.2-5 5-5s5 2.2 5 5-2.2 5-5 5-5-2.2-5-5zm12 11H13v-1c0-1.7 1.3-3 3-3h8c1.7 0 3 1.3 3 3v1z"
        fill="#fff" />
</svg>
